<svg xmlns="http://www.w3.org/2000/svg" width="600" height="400" viewBox="0 0 600 400"><rect width="100%" height="100%" fill="#000000"/><path fill="#FFF" d="m173.905 161.805-3.49 6.6q-.62 1.1-1.32 1.59-.71.49-1.75.49-1.09 0-2.36-.8-1.28-.81-3.04-1.8-1.77-.98-4.14-1.79-2.36-.81-5.59-.81-2.91 0-5.09.71-2.19.7-3.67 1.95-1.48 1.24-2.21 2.99-.73 1.74-.73 3.82 0 2.65 1.48 4.42 1.49 1.77 3.93 3.01 2.44 1.25 5.56 2.24 3.12.99 6.4 2.11 3.28 1.11 6.4 2.6 3.12 1.48 5.56 3.74 2.44 2.26 3.93 5.54 1.48 3.27 1.48 7.95 0 5.1-1.74 9.55-1.75 4.44-5.1 7.74-3.35 3.31-8.19 5.2-4.84 1.9-11.08 1.9-3.58 0-7.07-.7-3.48-.7-6.68-2-3.2-1.3-6.01-3.12-2.8-1.82-4.99-4.06l4.11-6.71q.52-.72 1.35-1.22.83-.49 1.77-.49 1.3 0 2.81 1.06 1.51 1.07 3.59 2.37t4.86 2.37q2.78 1.06 6.68 1.06 5.98 0 9.26-2.83 3.27-2.84 3.27-8.14 0-2.96-1.48-4.84-1.48-1.87-3.93-3.14-2.44-1.28-5.56-2.16-3.12-.88-6.34-1.92-3.23-1.04-6.35-2.5-3.12-1.46-5.56-3.8-2.45-2.34-3.93-5.85t-1.48-8.65q0-4.11 1.64-8.01 1.64-3.9 4.76-6.92 3.12-3.01 7.69-4.83 4.58-1.82 10.51-1.82 6.65 0 12.27 2.08 5.61 2.08 9.57 5.82Zm44.98 52.31v-23.92q-2.14-2.65-4.74-3.74-2.6-1.09-5.56-1.09-2.91 0-5.25 1.09t-4.01 3.3q-1.66 2.21-2.54 5.62-.89 3.4-.89 8.03 0 4.68.76 7.93.75 3.25 2.15 5.3 1.41 2.06 3.44 2.97 2.02.91 4.52.91 4 0 6.81-1.67 2.81-1.66 5.31-4.73Zm4.99-37.54h7.85v70.77h-12.84v-24.18q-3.18 3.38-7.18 5.46-4 2.08-9.31 2.08-4.37 0-8.01-1.82-3.64-1.82-6.26-5.28-2.63-3.46-4.06-8.55-1.43-5.1-1.43-11.65 0-5.93 1.61-11.02 1.62-5.1 4.63-8.84 3.02-3.75 7.23-5.85 4.21-2.11 9.46-2.11 5 0 8.38 1.72 3.38 1.71 6.03 4.62l.67-3.01q.68-2.34 3.23-2.34Zm53.66 0h12.85v53.35h-7.86q-2.54 0-3.22-2.34l-.88-4.26q-3.28 3.32-7.23 5.38-3.95 2.05-9.31 2.05-4.37 0-7.72-1.48-3.36-1.48-5.64-4.19-2.29-2.7-3.46-6.42-1.17-3.72-1.17-8.19v-33.9h12.84v33.9q0 4.89 2.26 7.57 2.27 2.68 6.79 2.68 3.33 0 6.24-1.49 2.91-1.48 5.51-4.08v-38.58Zm25.95 0h12.9v53.35h-12.9v-53.35Zm14.66-15.55q0 1.66-.67 3.12-.68 1.46-1.8 2.55-1.11 1.09-2.62 1.74-1.51.65-3.23.65-1.66 0-3.14-.65-1.48-.65-2.58-1.74-1.09-1.09-1.74-2.55-.65-1.46-.65-3.12 0-1.72.65-3.22.65-1.51 1.74-2.6 1.1-1.1 2.58-1.75 1.48-.65 3.14-.65 1.72 0 3.23.65t2.62 1.75q1.12 1.09 1.8 2.6.67 1.5.67 3.22Zm22.68 18.77.78 6.03q2.49-4.78 5.92-7.51 3.44-2.73 8.12-2.73 3.69 0 5.92 1.61l-.83 9.62q-.26.94-.75 1.33-.5.39-1.33.39-.78 0-2.31-.26-1.54-.26-2.99-.26-2.13 0-3.8.62-1.66.63-2.99 1.8-1.32 1.17-2.34 2.83-1.01 1.66-1.9 3.8v32.86h-12.84v-53.35h7.54q1.98 0 2.76.7.78.7 1.04 2.52Zm38.79 0 .78 6.03q2.49-4.78 5.93-7.51 3.43-2.73 8.11-2.73 3.69 0 5.93 1.61l-.84 9.62q-.26.94-.75 1.33-.49.39-1.33.39-.78 0-2.31-.26t-2.99-.26q-2.13 0-3.8.62-1.66.63-2.99 1.8-1.32 1.17-2.34 2.83-1.01 1.66-1.89 3.8v32.86h-12.85v-53.35h7.54q1.98 0 2.76.7.78.7 1.04 2.52Zm37.59 17.32h24.24q0-2.5-.71-4.71-.7-2.21-2.1-3.87-1.41-1.67-3.56-2.63-2.16-.96-5.02-.96-5.57 0-8.76 3.17-3.2 3.17-4.09 9Zm32.76 7.75h-33.02q.32 4.1 1.46 7.09t3.02 4.94q1.87 1.95 4.44 2.92 2.58.96 5.7.96t5.38-.73q2.26-.73 3.95-1.61 1.69-.89 2.96-1.61 1.28-.73 2.47-.73 1.62 0 2.4 1.19l3.69 4.68q-2.13 2.5-4.79 4.19-2.65 1.69-5.53 2.7-2.89 1.02-5.88 1.43-2.99.42-5.8.42-5.56 0-10.35-1.85-4.78-1.84-8.32-5.46-3.53-3.61-5.56-8.94t-2.03-12.35q0-5.46 1.77-10.27t5.07-8.37q3.3-3.56 8.06-5.64 4.76-2.08 10.74-2.08 5.04 0 9.31 1.61 4.26 1.61 7.33 4.7 3.07 3.1 4.81 7.6 1.74 4.49 1.74 10.27 0 2.91-.62 3.92-.63 1.02-2.4 1.02Zm12.8-52.21h12.84v77.27h-12.84v-77.27Z"/></svg>